<?xml version="1.0" encoding="UTF-8" standalone="no"?><!DOCTYPE svg PUBLIC "-//W3C//DTD SVG 1.1//EN" "http://www.w3.org/Graphics/SVG/1.1/DTD/svg11.dtd"><svg width="100%" height="100%" viewBox="0 0 680 420" version="1.1" xmlns="http://www.w3.org/2000/svg" xmlns:xlink="http://www.w3.org/1999/xlink" xml:space="preserve" xmlns:serif="http://www.serif.com/" style="fill-rule:evenodd;clip-rule:evenodd;stroke-linejoin:round;stroke-miterlimit:2;"><rect id="アートボード1" x="0" y="0" width="680" height="420" style="fill:none;"/><g id="アートボード11" serif:id="アートボード1"><rect x="0" y="0" width="680" height="420" style="fill:#dcdccf;"/><path d="M439.95,75.298c-52.804,17.432 -110.401,12.892 -159.822,-12.599c-23.003,-11.837 -49.089,-18.062 -76.511,-17.002c-87.553,3.385 -155.788,79.755 -152.282,170.436c3.506,90.681 77.434,161.555 164.986,158.17c22.002,-0.851 42.783,-6.31 61.513,-15.448c49.809,-24.293 107.279,-27.603 159.548,-9.191c16.556,5.829 34.451,8.691 53.027,7.972c79.403,-3.07 141.362,-70.398 138.275,-150.258c-3.088,-79.859 -70.06,-142.203 -149.464,-139.133c-13.69,0.53 -26.861,2.969 -39.27,7.053Z" style="fill:#4e5c73;"/><path d="M588.651,313.254l-131.751,0c-3.733,0 -7.313,-1.482 -9.952,-4.122c-2.64,-2.639 -4.122,-6.219 -4.122,-9.952c0,-0.001 0,-0.002 0,-0.003c0,-3.732 1.482,-7.312 4.122,-9.951c2.639,-2.64 6.219,-4.123 9.952,-4.123l6.864,0c7.574,0 13.714,-6.14 13.714,-13.714c0,-0.001 0,-0.002 0,-0.003c0,-3.637 -1.445,-7.125 -4.017,-9.697c-2.572,-2.572 -6.06,-4.017 -9.697,-4.017l-42.08,0c-7.773,0 -14.074,-6.301 -14.074,-14.074c0,-0.001 0,-0.002 0,-0.003c0,-3.732 1.482,-7.312 4.122,-9.951c2.639,-2.64 6.219,-4.123 9.952,-4.123c31.912,0 109.47,0 141.383,0c3.732,0 7.312,1.483 9.951,4.123c2.64,2.639 4.123,6.219 4.123,9.951c0,0.001 0,0.002 0,0.003c0,7.773 -6.301,14.074 -14.074,14.074c-12.26,0 -29.928,0 -42.081,0c-3.637,0 -7.125,1.445 -9.697,4.017c-2.572,2.572 -4.017,6.06 -4.017,9.697l0,0.003c0,3.638 1.445,7.126 4.017,9.698c2.572,2.572 6.06,4.016 9.697,4.016c20.024,0 57.072,0 77.297,0c3.435,0 6.741,1.256 9.304,3.514c-5.426,8.884 -11.781,17.144 -18.936,24.637Zm-482.474,-227.926l73.151,0c6.903,0 12.5,5.596 12.5,12.5l0,0.003c0,6.904 -5.597,12.5 -12.5,12.5l-37.62,0c-3.23,0 -6.328,1.283 -8.612,3.568c-2.285,2.284 -3.568,5.382 -3.568,8.612c0,0.001 0,0.003 0,0.004c0,3.23 1.283,6.328 3.568,8.613c2.284,2.284 5.382,3.567 8.612,3.567c17.859,0 50.981,0 69.021,0c6.903,0 12.5,5.597 12.5,12.5c0,0.001 0,0.002 0,0.003c0,6.904 -5.597,12.5 -12.5,12.5l-126.166,0c-6.903,0 -12.5,-5.596 -12.5,-12.5c0,-0.001 0,-0.002 0,-0.003c0,-3.315 1.317,-6.495 3.662,-8.839c2.344,-2.344 5.523,-3.661 8.838,-3.661c2.052,0 4.175,0 6.219,0c3.23,0 6.328,-1.283 8.612,-3.567c2.285,-2.285 3.568,-5.383 3.568,-8.613c0,-0.001 0,-0.003 0,-0.004c0,-3.23 -1.283,-6.328 -3.568,-8.612c-2.284,-2.285 -5.382,-3.568 -8.612,-3.568l-7.306,0c6.704,-9.126 14.315,-17.51 22.701,-25.003Z" style="fill:#231f20;fill-opacity:0.25;"/><path id="_-カーブ-" serif:id="(カーブ)" d="M101.36,329.573c-29.324,-28.572 -48.291,-68.583 -50.025,-113.44c-3.506,-90.681 64.729,-167.051 152.282,-170.436c27.422,-1.06 53.508,5.165 76.511,17.002c49.421,25.491 107.018,30.031 159.822,12.599c12.409,-4.084 25.58,-6.523 39.27,-7.053c42.325,-1.636 81.117,15.313 108.585,43.594c-27.256,-26.473 -64.779,-42.171 -105.585,-40.594c-13.69,0.53 -26.861,2.969 -39.27,7.053c-52.804,17.432 -110.401,12.892 -159.822,-12.599c-23.003,-11.837 -49.089,-18.062 -76.511,-17.002c-87.553,3.385 -155.788,79.755 -152.282,170.436c1.675,43.309 19.412,82.099 47.025,110.44Z" style="fill:#231f20;fill-opacity:0.25;"/><g><circle cx="506.269" cy="154.786" r="46.381" style="fill:#231f20;fill-opacity:0.25;"/><circle cx="503.269" cy="151.786" r="46.381" style="fill:#f0cb87;"/><clipPath id="_clip1"><circle cx="503.269" cy="151.786" r="46.381"/></clipPath><g clip-path="url(#_clip1)"><g id="_-グループ-" serif:id="(グループ)" opacity="0.25"><path d="M520.067,129.636l-3.393,-2.51l0,-4.551l4.393,-3.229l5.432,3.229l3.032,4.551l-4.079,2.51l-5.385,0Z" style="fill:#fff;"/><path d="M498.12,124.065l0.977,-5.073l5.944,-1.177l8.633,6.25l0,5.816l-8.633,3.582l-6.921,-2.352l0,-7.046Z" style="fill:#fff;"/><path d="M519.97,133.463l0,7.911l1.669,5.442l4.375,0l4.595,-4.336l-1.012,-5.349l-3.583,-3.668l-6.044,0Z" style="fill:#fff;"/><path d="M535.275,132.315l8.42,6.677l-3.319,6.676l-4.086,0l-2.038,-6.676l-1.829,-4.274l2.852,-2.403Z" style="fill:#fff;"/><path d="M499.289,187.409l7.777,4.977l1.625,-10.366l0,-9.68l-7.013,3.419l-3.895,6.261l1.506,5.389Z" style="fill:#fff;"/><path d="M479.267,127.15l11.392,1.944l4.109,6.18l1.332,11.89l-14.22,6.103l-10.997,2.001l-7.967,-10.809l0,-10.509l7.967,-11.087l8.384,4.287Z" style="fill:#fff;"/><path d="M460.86,162.205l2.056,15.469l5.867,9.735l9.902,-4.224l7.69,4.224l11.352,-9.735l5.542,-8.848l-5.542,-11.253l-9.47,-5.787l-14.466,5.787l-7.286,4.632l-5.645,0Z" style="fill:#fff;"/><path d="M460.86,149.802l-2.103,5.466l4.159,4.872l5.21,-1.792l-0.975,-6.562l-6.291,-1.984Z" style="fill:#fff;"/><path id="_-カーブ-1" serif:id="(カーブ)" d="M481.892,119.09l4.642,-7.85l10.306,0l10.127,-2.697l6.707,2.697l0,3.481l-4.664,0l-9.507,-1.382l-11.298,3.687l-5.102,6.426l-1.211,-4.362Z" style="fill:#fff;"/></g></g><g><path d="M209.852,83.125c0,-0.513 0.203,-1.004 0.566,-1.366c0.362,-0.363 0.854,-0.566 1.366,-0.566l3.213,0l0,-3.214c0,-0.512 0.204,-1.004 0.566,-1.366c0.363,-0.362 0.854,-0.566 1.366,-0.566l0.002,0c0.513,0 1.004,0.204 1.366,0.566c0.363,0.362 0.566,0.854 0.566,1.366l0,3.214l3.214,0c0.512,0 1.004,0.203 1.366,0.566c0.362,0.362 0.566,0.853 0.566,1.366l0,0.002c0,0.512 -0.204,1.003 -0.566,1.366c-0.362,0.362 -0.854,0.566 -1.366,0.566l-3.214,0l0,3.213c0,0.512 -0.203,1.004 -0.566,1.366c-0.362,0.362 -0.853,0.566 -1.366,0.566l-0.002,0c-0.512,0 -1.003,-0.204 -1.366,-0.566c-0.362,-0.362 -0.566,-0.854 -0.566,-1.366l0,-3.213l-3.213,0c-0.512,0 -1.004,-0.204 -1.366,-0.566c-0.363,-0.363 -0.566,-0.854 -0.566,-1.366l0,-0.002Z" style="fill:#231f20;fill-opacity:0.25;"/><path d="M231.354,100.549c0,-0.513 0.204,-1.004 0.566,-1.367c0.362,-0.362 0.854,-0.565 1.366,-0.565l3.213,0l0,-3.214c0,-0.512 0.204,-1.004 0.566,-1.366c0.363,-0.362 0.854,-0.566 1.366,-0.566l0.002,0c0.513,0 1.004,0.204 1.366,0.566c0.363,0.362 0.566,0.854 0.566,1.366l0,3.214l3.214,0c0.512,0 1.004,0.203 1.366,0.565c0.362,0.363 0.566,0.854 0.566,1.367l0,0.001c0,0.513 -0.204,1.004 -0.566,1.367c-0.362,0.362 -0.854,0.565 -1.366,0.565l-3.214,0l0,3.214c0,0.512 -0.203,1.004 -0.566,1.366c-0.362,0.362 -0.853,0.566 -1.366,0.566l-0.002,0c-0.512,0 -1.003,-0.204 -1.366,-0.566c-0.362,-0.362 -0.566,-0.854 -0.566,-1.366l0,-3.214l-3.213,0c-0.512,0 -1.004,-0.203 -1.366,-0.565c-0.362,-0.363 -0.566,-0.854 -0.566,-1.367l0,-0.001Z" style="fill:#231f20;fill-opacity:0.25;"/><path d="M262.405,93.47c0,-0.512 0.203,-1.004 0.566,-1.366c0.362,-0.362 0.853,-0.566 1.366,-0.566l3.213,0l0,-3.213c0,-0.513 0.204,-1.004 0.566,-1.366c0.363,-0.363 0.854,-0.566 1.366,-0.566l0.002,0c0.513,0 1.004,0.203 1.366,0.566c0.363,0.362 0.566,0.853 0.566,1.366l0,3.213l3.214,0c0.512,0 1.004,0.204 1.366,0.566c0.362,0.362 0.566,0.854 0.566,1.366l0,0.002c0,0.512 -0.204,1.004 -0.566,1.366c-0.362,0.363 -0.854,0.566 -1.366,0.566l-3.214,0l0,3.214c0,0.512 -0.203,1.003 -0.566,1.366c-0.362,0.362 -0.853,0.566 -1.366,0.566l-0.002,0c-0.512,0 -1.003,-0.204 -1.366,-0.566c-0.362,-0.363 -0.566,-0.854 -0.566,-1.366l0,-3.214l-3.213,0c-0.513,0 -1.004,-0.203 -1.366,-0.566c-0.363,-0.362 -0.566,-0.854 -0.566,-1.366l0,-0.002Z" style="fill:#231f20;fill-opacity:0.25;"/><path d="M288.722,132.457c0,-0.512 0.204,-1.004 0.566,-1.366c0.362,-0.362 0.854,-0.566 1.366,-0.566l3.214,0l0,-3.213c0,-0.513 0.203,-1.004 0.565,-1.366c0.363,-0.363 0.854,-0.566 1.367,-0.566l0.001,0c0.513,0 1.004,0.203 1.367,0.566c0.362,0.362 0.565,0.853 0.565,1.366l0,3.213l3.214,0c0.512,0 1.004,0.204 1.366,0.566c0.362,0.362 0.566,0.854 0.566,1.366l0,0.002c0,0.513 -0.204,1.004 -0.566,1.366c-0.362,0.363 -0.854,0.566 -1.366,0.566l-3.214,0l0,3.214c0,0.512 -0.203,1.003 -0.565,1.366c-0.363,0.362 -0.854,0.566 -1.367,0.566l-0.001,0c-0.513,0 -1.004,-0.204 -1.367,-0.566c-0.362,-0.363 -0.565,-0.854 -0.565,-1.366l0,-3.214l-3.214,0c-0.512,0 -1.004,-0.203 -1.366,-0.566c-0.362,-0.362 -0.566,-0.853 -0.566,-1.366l0,-0.002Z" style="fill:#231f20;fill-opacity:0.25;"/><path d="M207.52,80.793c0,-0.512 0.204,-1.004 0.566,-1.366c0.363,-0.362 0.854,-0.566 1.366,-0.566l3.214,0l0,-3.213c0,-0.513 0.203,-1.004 0.566,-1.367c0.362,-0.362 0.853,-0.565 1.366,-0.565l0.002,0c0.512,0 1.003,0.203 1.366,0.565c0.362,0.363 0.566,0.854 0.566,1.367l0,3.213l3.213,0c0.513,0 1.004,0.204 1.366,0.566c0.363,0.362 0.566,0.854 0.566,1.366l0,0.002c0,0.512 -0.203,1.004 -0.566,1.366c-0.362,0.362 -0.853,0.566 -1.366,0.566l-3.213,0l0,3.213c0,0.513 -0.204,1.004 -0.566,1.367c-0.363,0.362 -0.854,0.565 -1.366,0.565l-0.002,0c-0.513,0 -1.004,-0.203 -1.366,-0.565c-0.363,-0.363 -0.566,-0.854 -0.566,-1.367l0,-3.213l-3.214,0c-0.512,0 -1.003,-0.204 -1.366,-0.566c-0.362,-0.362 -0.566,-0.854 -0.566,-1.366l0,-0.002Z" style="fill:#f0cb87;"/><path d="M229.022,98.217c0,-0.512 0.204,-1.004 0.566,-1.366c0.363,-0.362 0.854,-0.566 1.366,-0.566l3.214,0l0,-3.213c0,-0.513 0.203,-1.004 0.566,-1.367c0.362,-0.362 0.853,-0.565 1.366,-0.565l0.002,0c0.512,0 1.004,0.203 1.366,0.565c0.362,0.363 0.566,0.854 0.566,1.367l0,3.213l3.213,0c0.513,0 1.004,0.204 1.366,0.566c0.363,0.362 0.566,0.854 0.566,1.366l0,0.002c0,0.512 -0.203,1.004 -0.566,1.366c-0.362,0.362 -0.853,0.566 -1.366,0.566l-3.213,0l0,3.213c0,0.513 -0.204,1.004 -0.566,1.367c-0.362,0.362 -0.854,0.565 -1.366,0.565l-0.002,0c-0.513,0 -1.004,-0.203 -1.366,-0.565c-0.363,-0.363 -0.566,-0.854 -0.566,-1.367l0,-3.213l-3.214,0c-0.512,0 -1.003,-0.204 -1.366,-0.566c-0.362,-0.362 -0.566,-0.854 -0.566,-1.366l0,-0.002Z" style="fill:#f0cb87;"/><path d="M260.073,91.139c0,-0.513 0.204,-1.004 0.566,-1.367c0.362,-0.362 0.854,-0.565 1.366,-0.565l3.214,0l0,-3.214c0,-0.512 0.203,-1.004 0.566,-1.366c0.362,-0.362 0.853,-0.566 1.366,-0.566l0.002,0c0.512,0 1.003,0.204 1.366,0.566c0.362,0.362 0.566,0.854 0.566,1.366l0,3.214l3.213,0c0.513,0 1.004,0.203 1.366,0.565c0.363,0.363 0.566,0.854 0.566,1.367l0,0.001c0,0.513 -0.203,1.004 -0.566,1.367c-0.362,0.362 -0.853,0.565 -1.366,0.565l-3.213,0l0,3.214c0,0.512 -0.204,1.004 -0.566,1.366c-0.363,0.362 -0.854,0.566 -1.366,0.566l-0.002,0c-0.513,0 -1.004,-0.204 -1.366,-0.566c-0.363,-0.362 -0.566,-0.854 -0.566,-1.366l0,-3.214l-3.214,0c-0.512,0 -1.004,-0.203 -1.366,-0.565c-0.362,-0.363 -0.566,-0.854 -0.566,-1.367l0,-0.001Z" style="fill:#f0cb87;"/><path d="M286.391,130.126c0,-0.513 0.203,-1.004 0.565,-1.367c0.363,-0.362 0.854,-0.565 1.367,-0.565l3.213,0l0,-3.214c0,-0.512 0.204,-1.004 0.566,-1.366c0.362,-0.362 0.854,-0.566 1.366,-0.566l0.002,0c0.512,0 1.004,0.204 1.366,0.566c0.362,0.362 0.566,0.854 0.566,1.366l0,3.214l3.213,0c0.513,0 1.004,0.203 1.366,0.565c0.363,0.363 0.566,0.854 0.566,1.367l0,0.002c0,0.512 -0.203,1.003 -0.566,1.366c-0.362,0.362 -0.853,0.566 -1.366,0.566l-3.213,0l0,3.213c0,0.512 -0.204,1.004 -0.566,1.366c-0.362,0.362 -0.854,0.566 -1.366,0.566l-0.002,0c-0.512,0 -1.004,-0.204 -1.366,-0.566c-0.362,-0.362 -0.566,-0.854 -0.566,-1.366l0,-3.213l-3.213,0c-0.513,0 -1.004,-0.204 -1.367,-0.566c-0.362,-0.363 -0.565,-0.854 -0.565,-1.366l0,-0.002Z" style="fill:#f0cb87;"/></g><g><path d="M409.941,280.797c0,-0.512 0.204,-1.004 0.566,-1.366c0.362,-0.363 0.854,-0.566 1.366,-0.566l3.214,0l0,-3.214c0,-0.512 0.203,-1.003 0.566,-1.366c0.362,-0.362 0.853,-0.566 1.366,-0.566l0.002,0c0.512,0 1.003,0.204 1.366,0.566c0.362,0.363 0.566,0.854 0.566,1.366l0,3.214l3.213,0c0.512,0 1.004,0.203 1.366,0.566c0.362,0.362 0.566,0.854 0.566,1.366l0,0.002c0,0.512 -0.204,1.004 -0.566,1.366c-0.362,0.362 -0.854,0.566 -1.366,0.566l-3.213,0l0,3.213c0,0.513 -0.204,1.004 -0.566,1.366c-0.363,0.363 -0.854,0.566 -1.366,0.566l-0.002,0c-0.513,0 -1.004,-0.203 -1.366,-0.566c-0.363,-0.362 -0.566,-0.853 -0.566,-1.366l0,-3.213l-3.214,0c-0.512,0 -1.004,-0.204 -1.366,-0.566c-0.362,-0.362 -0.566,-0.854 -0.566,-1.366l0,-0.002Z" style="fill:#231f20;fill-opacity:0.25;"/><path d="M431.443,298.221c0,-0.513 0.204,-1.004 0.566,-1.366c0.362,-0.363 0.854,-0.566 1.366,-0.566l3.214,0l0,-3.214c0,-0.512 0.203,-1.003 0.566,-1.366c0.362,-0.362 0.853,-0.566 1.366,-0.566l0.002,0c0.512,0 1.003,0.204 1.366,0.566c0.362,0.363 0.566,0.854 0.566,1.366l0,3.214l3.213,0c0.512,0 1.004,0.203 1.366,0.566c0.363,0.362 0.566,0.853 0.566,1.366l0,0.002c0,0.512 -0.203,1.004 -0.566,1.366c-0.362,0.362 -0.854,0.566 -1.366,0.566l-3.213,0l0,3.213c0,0.513 -0.204,1.004 -0.566,1.366c-0.363,0.363 -0.854,0.566 -1.366,0.566l-0.002,0c-0.513,0 -1.004,-0.203 -1.366,-0.566c-0.363,-0.362 -0.566,-0.853 -0.566,-1.366l0,-3.213l-3.214,0c-0.512,0 -1.004,-0.204 -1.366,-0.566c-0.362,-0.362 -0.566,-0.854 -0.566,-1.366l0,-0.002Z" style="fill:#231f20;fill-opacity:0.25;"/><path d="M462.494,291.142c0,-0.512 0.204,-1.003 0.566,-1.366c0.362,-0.362 0.854,-0.566 1.366,-0.566l3.214,0l0,-3.213c0,-0.512 0.203,-1.004 0.565,-1.366c0.363,-0.362 0.854,-0.566 1.367,-0.566l0.001,0c0.513,0 1.004,0.204 1.367,0.566c0.362,0.362 0.565,0.854 0.565,1.366l0,3.213l3.214,0c0.512,0 1.004,0.204 1.366,0.566c0.362,0.363 0.566,0.854 0.566,1.366l0,0.002c0,0.513 -0.204,1.004 -0.566,1.366c-0.362,0.363 -0.854,0.566 -1.366,0.566l-3.214,0l0,3.214c0,0.512 -0.203,1.004 -0.565,1.366c-0.363,0.362 -0.854,0.566 -1.367,0.566l-0.001,0c-0.513,0 -1.004,-0.204 -1.367,-0.566c-0.362,-0.362 -0.565,-0.854 -0.565,-1.366l0,-3.214l-3.214,0c-0.512,0 -1.004,-0.203 -1.366,-0.566c-0.362,-0.362 -0.566,-0.853 -0.566,-1.366l0,-0.002Z" style="fill:#231f20;fill-opacity:0.25;"/><path d="M488.811,330.129c0,-0.512 0.204,-1.003 0.566,-1.366c0.363,-0.362 0.854,-0.566 1.366,-0.566l3.214,0l0,-3.213c0,-0.512 0.203,-1.004 0.566,-1.366c0.362,-0.362 0.853,-0.566 1.366,-0.566l0.002,0c0.512,0 1.004,0.204 1.366,0.566c0.362,0.362 0.566,0.854 0.566,1.366l0,3.213l3.213,0c0.513,0 1.004,0.204 1.366,0.566c0.363,0.363 0.566,0.854 0.566,1.366l0,0.002c0,0.513 -0.203,1.004 -0.566,1.367c-0.362,0.362 -0.853,0.565 -1.366,0.565l-3.213,0l0,3.214c0,0.512 -0.204,1.004 -0.566,1.366c-0.362,0.362 -0.854,0.566 -1.366,0.566l-0.002,0c-0.513,0 -1.004,-0.204 -1.366,-0.566c-0.363,-0.362 -0.566,-0.854 -0.566,-1.366l0,-3.214l-3.214,0c-0.512,0 -1.003,-0.203 -1.366,-0.565c-0.362,-0.363 -0.566,-0.854 -0.566,-1.367l0,-0.002Z" style="fill:#231f20;fill-opacity:0.25;"/><path d="M407.61,278.465c0,-0.512 0.203,-1.003 0.565,-1.366c0.363,-0.362 0.854,-0.566 1.367,-0.566l3.213,0l0,-3.213c0,-0.513 0.204,-1.004 0.566,-1.366c0.362,-0.363 0.854,-0.566 1.366,-0.566l0.002,0c0.512,0 1.004,0.203 1.366,0.566c0.362,0.362 0.566,0.853 0.566,1.366l0,3.213l3.213,0c0.513,0 1.004,0.204 1.367,0.566c0.362,0.363 0.565,0.854 0.565,1.366l0,0.002c0,0.513 -0.203,1.004 -0.565,1.366c-0.363,0.363 -0.854,0.566 -1.367,0.566l-3.213,0l0,3.214c0,0.512 -0.204,1.004 -0.566,1.366c-0.362,0.362 -0.854,0.566 -1.366,0.566l-0.002,0c-0.512,0 -1.004,-0.204 -1.366,-0.566c-0.362,-0.362 -0.566,-0.854 -0.566,-1.366l0,-3.214l-3.213,0c-0.513,0 -1.004,-0.203 -1.367,-0.566c-0.362,-0.362 -0.565,-0.853 -0.565,-1.366l0,-0.002Z" style="fill:#f0cb87;"/><path d="M429.112,295.889c0,-0.512 0.203,-1.004 0.566,-1.366c0.362,-0.362 0.853,-0.566 1.366,-0.566l3.213,0l0,-3.213c0,-0.513 0.204,-1.004 0.566,-1.366c0.362,-0.363 0.854,-0.566 1.366,-0.566l0.002,0c0.512,0 1.004,0.203 1.366,0.566c0.362,0.362 0.566,0.853 0.566,1.366l0,3.213l3.213,0c0.513,0 1.004,0.204 1.367,0.566c0.362,0.362 0.565,0.854 0.565,1.366l0,0.002c0,0.513 -0.203,1.004 -0.565,1.366c-0.363,0.363 -0.854,0.566 -1.367,0.566l-3.213,0l0,3.214c0,0.512 -0.204,1.003 -0.566,1.366c-0.362,0.362 -0.854,0.566 -1.366,0.566l-0.002,0c-0.512,0 -1.004,-0.204 -1.366,-0.566c-0.362,-0.363 -0.566,-0.854 -0.566,-1.366l0,-3.214l-3.213,0c-0.513,0 -1.004,-0.203 -1.366,-0.566c-0.363,-0.362 -0.566,-0.853 -0.566,-1.366l0,-0.002Z" style="fill:#f0cb87;"/><path d="M460.163,288.811c0,-0.513 0.203,-1.004 0.565,-1.366c0.363,-0.363 0.854,-0.566 1.367,-0.566l3.213,0l0,-3.214c0,-0.512 0.204,-1.003 0.566,-1.366c0.362,-0.362 0.854,-0.566 1.366,-0.566l0.002,0c0.512,0 1.004,0.204 1.366,0.566c0.362,0.363 0.566,0.854 0.566,1.366l0,3.214l3.213,0c0.513,0 1.004,0.203 1.366,0.566c0.363,0.362 0.566,0.853 0.566,1.366l0,0.002c0,0.512 -0.203,1.004 -0.566,1.366c-0.362,0.362 -0.853,0.566 -1.366,0.566l-3.213,0l0,3.213c0,0.513 -0.204,1.004 -0.566,1.366c-0.362,0.363 -0.854,0.566 -1.366,0.566l-0.002,0c-0.512,0 -1.004,-0.203 -1.366,-0.566c-0.362,-0.362 -0.566,-0.853 -0.566,-1.366l0,-3.213l-3.213,0c-0.513,0 -1.004,-0.204 -1.367,-0.566c-0.362,-0.362 -0.565,-0.854 -0.565,-1.366l0,-0.002Z" style="fill:#f0cb87;"/><path d="M486.48,327.798c0,-0.513 0.203,-1.004 0.566,-1.366c0.362,-0.363 0.853,-0.566 1.366,-0.566l3.213,0l0,-3.214c0,-0.512 0.204,-1.003 0.566,-1.366c0.362,-0.362 0.854,-0.566 1.366,-0.566l0.002,0c0.513,0 1.004,0.204 1.366,0.566c0.363,0.363 0.566,0.854 0.566,1.366l0,3.214l3.214,0c0.512,0 1.003,0.203 1.366,0.566c0.362,0.362 0.566,0.853 0.566,1.366l0,0.002c0,0.512 -0.204,1.004 -0.566,1.366c-0.363,0.362 -0.854,0.566 -1.366,0.566l-3.214,0l0,3.213c0,0.513 -0.203,1.004 -0.566,1.366c-0.362,0.363 -0.853,0.566 -1.366,0.566l-0.002,0c-0.512,0 -1.004,-0.203 -1.366,-0.566c-0.362,-0.362 -0.566,-0.853 -0.566,-1.366l0,-3.213l-3.213,0c-0.513,0 -1.004,-0.204 -1.366,-0.566c-0.363,-0.362 -0.566,-0.854 -0.566,-1.366l0,-0.002Z" style="fill:#f0cb87;"/></g><g><path d="M74.094,186.499c0,-0.513 0.204,-1.004 0.566,-1.367c0.363,-0.362 0.854,-0.565 1.366,-0.565l3.214,0l0,-3.214c0,-0.512 0.203,-1.004 0.566,-1.366c0.362,-0.362 0.853,-0.566 1.366,-0.566l0.002,0c0.512,0 1.004,0.204 1.366,0.566c0.362,0.362 0.566,0.854 0.566,1.366l0,3.214l3.213,0c0.513,0 1.004,0.203 1.366,0.565c0.363,0.363 0.566,0.854 0.566,1.367l0,0.001c0,0.513 -0.203,1.004 -0.566,1.367c-0.362,0.362 -0.853,0.565 -1.366,0.565l-3.213,0l0,3.214c0,0.512 -0.204,1.004 -0.566,1.366c-0.362,0.362 -0.854,0.566 -1.366,0.566l-0.002,0c-0.513,0 -1.004,-0.204 -1.366,-0.566c-0.363,-0.362 -0.566,-0.854 -0.566,-1.366l0,-3.214l-3.214,0c-0.512,0 -1.003,-0.203 -1.366,-0.565c-0.362,-0.363 -0.566,-0.854 -0.566,-1.367l0,-0.001Z" style="fill:#231f20;fill-opacity:0.25;"/><path d="M95.596,203.923c0,-0.513 0.204,-1.004 0.566,-1.367c0.363,-0.362 0.854,-0.565 1.366,-0.565l3.214,0l0,-3.214c0,-0.512 0.204,-1.004 0.566,-1.366c0.362,-0.362 0.854,-0.566 1.366,-0.566l0.002,0c0.512,0 1.004,0.204 1.366,0.566c0.362,0.362 0.566,0.854 0.566,1.366l0,3.214l3.213,0c0.513,0 1.004,0.203 1.366,0.565c0.363,0.363 0.566,0.854 0.566,1.367l0,0.001c0,0.513 -0.203,1.004 -0.566,1.367c-0.362,0.362 -0.853,0.565 -1.366,0.565l-3.213,0l0,3.214c0,0.512 -0.204,1.004 -0.566,1.366c-0.362,0.362 -0.854,0.566 -1.366,0.566l-0.002,0c-0.512,0 -1.004,-0.204 -1.366,-0.566c-0.362,-0.362 -0.566,-0.854 -0.566,-1.366l0,-3.214l-3.214,0c-0.512,0 -1.003,-0.203 -1.366,-0.565c-0.362,-0.363 -0.566,-0.854 -0.566,-1.367l0,-0.001Z" style="fill:#231f20;fill-opacity:0.25;"/><path d="M126.647,196.844c0,-0.512 0.204,-1.004 0.566,-1.366c0.363,-0.362 0.854,-0.566 1.366,-0.566l3.214,0l0,-3.213c0,-0.513 0.203,-1.004 0.566,-1.367c0.362,-0.362 0.853,-0.565 1.366,-0.565l0.002,0c0.512,0 1.004,0.203 1.366,0.565c0.362,0.363 0.566,0.854 0.566,1.367l0,3.213l3.213,0c0.513,0 1.004,0.204 1.366,0.566c0.363,0.362 0.566,0.854 0.566,1.366l0,0.002c0,0.512 -0.203,1.004 -0.566,1.366c-0.362,0.362 -0.853,0.566 -1.366,0.566l-3.213,0l0,3.213c0,0.513 -0.204,1.004 -0.566,1.367c-0.362,0.362 -0.854,0.565 -1.366,0.565l-0.002,0c-0.513,0 -1.004,-0.203 -1.366,-0.565c-0.363,-0.363 -0.566,-0.854 -0.566,-1.367l0,-3.213l-3.214,0c-0.512,0 -1.003,-0.204 -1.366,-0.566c-0.362,-0.362 -0.566,-0.854 -0.566,-1.366l0,-0.002Z" style="fill:#231f20;fill-opacity:0.25;"/><path d="M152.965,235.831c0,-0.512 0.203,-1.004 0.565,-1.366c0.363,-0.362 0.854,-0.566 1.367,-0.566l3.213,0l0,-3.213c0,-0.513 0.204,-1.004 0.566,-1.366c0.362,-0.363 0.854,-0.566 1.366,-0.566l0.002,0c0.512,0 1.004,0.203 1.366,0.566c0.362,0.362 0.566,0.853 0.566,1.366l0,3.213l3.213,0c0.513,0 1.004,0.204 1.367,0.566c0.362,0.362 0.565,0.854 0.565,1.366l0,0.002c0,0.512 -0.203,1.004 -0.565,1.366c-0.363,0.362 -0.854,0.566 -1.367,0.566l-3.213,0l0,3.214c0,0.512 -0.204,1.003 -0.566,1.366c-0.362,0.362 -0.854,0.565 -1.366,0.565l-0.002,0c-0.512,0 -1.004,-0.203 -1.366,-0.565c-0.362,-0.363 -0.566,-0.854 -0.566,-1.366l0,-3.214l-3.213,0c-0.513,0 -1.004,-0.204 -1.367,-0.566c-0.362,-0.362 -0.565,-0.854 -0.565,-1.366l0,-0.002Z" style="fill:#231f20;fill-opacity:0.25;"/><path d="M71.763,184.167c0,-0.512 0.203,-1.004 0.566,-1.366c0.362,-0.362 0.853,-0.566 1.366,-0.566l3.213,0l0,-3.214c0,-0.512 0.204,-1.003 0.566,-1.366c0.362,-0.362 0.854,-0.565 1.366,-0.565l0.002,0c0.513,0 1.004,0.203 1.366,0.565c0.363,0.363 0.566,0.854 0.566,1.366l0,3.214l3.214,0c0.512,0 1.003,0.204 1.366,0.566c0.362,0.362 0.566,0.854 0.566,1.366l0,0.002c0,0.512 -0.204,1.004 -0.566,1.366c-0.363,0.362 -0.854,0.566 -1.366,0.566l-3.214,0l0,3.213c0,0.513 -0.203,1.004 -0.566,1.366c-0.362,0.363 -0.853,0.566 -1.366,0.566l-0.002,0c-0.512,0 -1.004,-0.203 -1.366,-0.566c-0.362,-0.362 -0.566,-0.853 -0.566,-1.366l0,-3.213l-3.213,0c-0.513,0 -1.004,-0.204 -1.366,-0.566c-0.363,-0.362 -0.566,-0.854 -0.566,-1.366l0,-0.002Z" style="fill:#f0cb87;"/><path d="M93.265,201.591c0,-0.512 0.203,-1.004 0.566,-1.366c0.362,-0.363 0.853,-0.566 1.366,-0.566l3.213,0l0,-3.214c0,-0.512 0.204,-1.003 0.566,-1.366c0.363,-0.362 0.854,-0.566 1.366,-0.566l0.002,0c0.513,0 1.004,0.204 1.366,0.566c0.363,0.363 0.566,0.854 0.566,1.366l0,3.214l3.214,0c0.512,0 1.004,0.203 1.366,0.566c0.362,0.362 0.566,0.854 0.566,1.366l0,0.002c0,0.512 -0.204,1.004 -0.566,1.366c-0.362,0.362 -0.854,0.566 -1.366,0.566l-3.214,0l0,3.213c0,0.513 -0.203,1.004 -0.566,1.366c-0.362,0.363 -0.853,0.566 -1.366,0.566l-0.002,0c-0.512,0 -1.003,-0.203 -1.366,-0.566c-0.362,-0.362 -0.566,-0.853 -0.566,-1.366l0,-3.213l-3.213,0c-0.513,0 -1.004,-0.204 -1.366,-0.566c-0.363,-0.362 -0.566,-0.854 -0.566,-1.366l0,-0.002Z" style="fill:#f0cb87;"/><path d="M124.316,194.512c0,-0.512 0.203,-1.003 0.566,-1.366c0.362,-0.362 0.853,-0.566 1.366,-0.566l3.213,0l0,-3.213c0,-0.512 0.204,-1.004 0.566,-1.366c0.362,-0.362 0.854,-0.566 1.366,-0.566l0.002,0c0.512,0 1.004,0.204 1.366,0.566c0.363,0.362 0.566,0.854 0.566,1.366l0,3.213l3.214,0c0.512,0 1.003,0.204 1.366,0.566c0.362,0.363 0.566,0.854 0.566,1.366l0,0.002c0,0.513 -0.204,1.004 -0.566,1.367c-0.363,0.362 -0.854,0.565 -1.366,0.565l-3.214,0l0,3.214c0,0.512 -0.203,1.004 -0.566,1.366c-0.362,0.362 -0.854,0.566 -1.366,0.566l-0.002,0c-0.512,0 -1.004,-0.204 -1.366,-0.566c-0.362,-0.362 -0.566,-0.854 -0.566,-1.366l0,-3.214l-3.213,0c-0.513,0 -1.004,-0.203 -1.366,-0.565c-0.363,-0.363 -0.566,-0.854 -0.566,-1.367l0,-0.002Z" style="fill:#f0cb87;"/><path d="M150.633,233.5c0,-0.513 0.204,-1.004 0.566,-1.367c0.362,-0.362 0.854,-0.565 1.366,-0.565l3.213,0l0,-3.214c0,-0.512 0.204,-1.004 0.566,-1.366c0.363,-0.362 0.854,-0.566 1.366,-0.566l0.002,0c0.513,0 1.004,0.204 1.366,0.566c0.363,0.362 0.566,0.854 0.566,1.366l0,3.214l3.214,0c0.512,0 1.004,0.203 1.366,0.565c0.362,0.363 0.566,0.854 0.566,1.367l0,0.001c0,0.513 -0.204,1.004 -0.566,1.367c-0.362,0.362 -0.854,0.565 -1.366,0.565l-3.214,0l0,3.214c0,0.512 -0.203,1.004 -0.566,1.366c-0.362,0.362 -0.853,0.566 -1.366,0.566l-0.002,0c-0.512,0 -1.003,-0.204 -1.366,-0.566c-0.362,-0.362 -0.566,-0.854 -0.566,-1.366l0,-3.214l-3.213,0c-0.512,0 -1.004,-0.203 -1.366,-0.565c-0.362,-0.363 -0.566,-0.854 -0.566,-1.367l0,-0.001Z" style="fill:#f0cb87;"/></g><g><path d="M514.12,219.689c0,-0.513 0.203,-1.004 0.565,-1.367c0.363,-0.362 0.854,-0.565 1.367,-0.565l3.213,0l0,-3.214c0,-0.512 0.204,-1.004 0.566,-1.366c0.362,-0.362 0.854,-0.566 1.366,-0.566l0.002,0c0.512,0 1.004,0.204 1.366,0.566c0.362,0.362 0.566,0.854 0.566,1.366l0,3.214l3.213,0c0.513,0 1.004,0.203 1.367,0.565c0.362,0.363 0.565,0.854 0.565,1.367l0,0.001c0,0.513 -0.203,1.004 -0.565,1.367c-0.363,0.362 -0.854,0.565 -1.367,0.565l-3.213,0l0,3.214c0,0.512 -0.204,1.004 -0.566,1.366c-0.362,0.362 -0.854,0.566 -1.366,0.566l-0.002,0c-0.512,0 -1.004,-0.204 -1.366,-0.566c-0.362,-0.362 -0.566,-0.854 -0.566,-1.366l0,-3.214l-3.213,0c-0.513,0 -1.004,-0.203 -1.367,-0.565c-0.362,-0.363 -0.565,-0.854 -0.565,-1.367l0,-0.001Z" style="fill:#231f20;fill-opacity:0.25;"/><path d="M535.622,237.113c0,-0.513 0.203,-1.004 0.566,-1.367c0.362,-0.362 0.853,-0.565 1.366,-0.565l3.213,0l0,-3.214c0,-0.512 0.204,-1.004 0.566,-1.366c0.362,-0.362 0.854,-0.566 1.366,-0.566l0.002,0c0.512,0 1.004,0.204 1.366,0.566c0.362,0.362 0.566,0.854 0.566,1.366l0,3.214l3.214,0c0.512,0 1.003,0.203 1.366,0.565c0.362,0.363 0.566,0.854 0.566,1.367l0,0.001c0,0.513 -0.204,1.004 -0.566,1.367c-0.363,0.362 -0.854,0.565 -1.366,0.565l-3.214,0l0,3.214c0,0.512 -0.204,1.004 -0.566,1.366c-0.362,0.362 -0.854,0.566 -1.366,0.566l-0.002,0c-0.512,0 -1.004,-0.204 -1.366,-0.566c-0.362,-0.362 -0.566,-0.854 -0.566,-1.366l0,-3.214l-3.213,0c-0.513,0 -1.004,-0.203 -1.366,-0.565c-0.363,-0.363 -0.566,-0.854 -0.566,-1.367l0,-0.001Z" style="fill:#231f20;fill-opacity:0.25;"/><path d="M566.673,230.034c0,-0.512 0.203,-1.004 0.565,-1.366c0.363,-0.362 0.854,-0.566 1.367,-0.566l3.213,0l0,-3.213c0,-0.513 0.204,-1.004 0.566,-1.367c0.362,-0.362 0.854,-0.565 1.366,-0.565l0.002,0c0.512,0 1.004,0.203 1.366,0.565c0.362,0.363 0.566,0.854 0.566,1.367l0,3.213l3.213,0c0.513,0 1.004,0.204 1.367,0.566c0.362,0.362 0.565,0.854 0.565,1.366l0,0.002c0,0.512 -0.203,1.004 -0.565,1.366c-0.363,0.362 -0.854,0.566 -1.367,0.566l-3.213,0l0,3.213c0,0.513 -0.204,1.004 -0.566,1.367c-0.362,0.362 -0.854,0.565 -1.366,0.565l-0.002,0c-0.512,0 -1.004,-0.203 -1.366,-0.565c-0.362,-0.363 -0.566,-0.854 -0.566,-1.367l0,-3.213l-3.213,0c-0.513,0 -1.004,-0.204 -1.367,-0.566c-0.362,-0.362 -0.565,-0.854 -0.565,-1.366l0,-0.002Z" style="fill:#231f20;fill-opacity:0.25;"/><path d="M575.508,273.387c0,-0.512 0.204,-1.004 0.566,-1.366c0.363,-0.363 0.854,-0.566 1.366,-0.566l3.214,0l0,-3.214c0,-0.512 0.203,-1.003 0.566,-1.366c0.362,-0.362 0.854,-0.566 1.366,-0.566l0.002,0c0.512,0 1.004,0.204 1.366,0.566c0.362,0.363 0.566,0.854 0.566,1.366l0,3.214l3.213,0c0.513,0 1.004,0.203 1.366,0.566c0.363,0.362 0.566,0.854 0.566,1.366l0,0.002c0,0.512 -0.203,1.004 -0.566,1.366c-0.362,0.362 -0.853,0.566 -1.366,0.566l-3.213,0l0,3.213c0,0.513 -0.204,1.004 -0.566,1.366c-0.362,0.363 -0.854,0.566 -1.366,0.566l-0.002,0c-0.512,0 -1.004,-0.203 -1.366,-0.566c-0.363,-0.362 -0.566,-0.853 -0.566,-1.366l0,-3.213l-3.214,0c-0.512,0 -1.003,-0.204 -1.366,-0.566c-0.362,-0.362 -0.566,-0.854 -0.566,-1.366l0,-0.002Z" style="fill:#231f20;fill-opacity:0.25;"/><path d="M511.788,217.357c0,-0.512 0.204,-1.004 0.566,-1.366c0.362,-0.362 0.854,-0.566 1.366,-0.566l3.213,0l0,-3.214c0,-0.512 0.204,-1.003 0.566,-1.366c0.363,-0.362 0.854,-0.566 1.366,-0.566l0.002,0c0.513,0 1.004,0.204 1.366,0.566c0.363,0.363 0.566,0.854 0.566,1.366l0,3.214l3.214,0c0.512,0 1.004,0.204 1.366,0.566c0.362,0.362 0.566,0.854 0.566,1.366l0,0.002c0,0.512 -0.204,1.004 -0.566,1.366c-0.362,0.362 -0.854,0.566 -1.366,0.566l-3.214,0l0,3.213c0,0.513 -0.203,1.004 -0.566,1.366c-0.362,0.363 -0.853,0.566 -1.366,0.566l-0.002,0c-0.512,0 -1.003,-0.203 -1.366,-0.566c-0.362,-0.362 -0.566,-0.853 -0.566,-1.366l0,-3.213l-3.213,0c-0.512,0 -1.004,-0.204 -1.366,-0.566c-0.362,-0.362 -0.566,-0.854 -0.566,-1.366l0,-0.002Z" style="fill:#f0cb87;"/><path d="M533.29,234.781c0,-0.512 0.204,-1.004 0.566,-1.366c0.362,-0.363 0.854,-0.566 1.366,-0.566l3.214,0l0,-3.214c0,-0.512 0.203,-1.003 0.565,-1.366c0.363,-0.362 0.854,-0.566 1.367,-0.566l0.001,0c0.513,0 1.004,0.204 1.367,0.566c0.362,0.363 0.565,0.854 0.565,1.366l0,3.214l3.214,0c0.512,0 1.004,0.203 1.366,0.566c0.362,0.362 0.566,0.854 0.566,1.366l0,0.002c0,0.512 -0.204,1.004 -0.566,1.366c-0.362,0.362 -0.854,0.566 -1.366,0.566l-3.214,0l0,3.213c0,0.513 -0.203,1.004 -0.565,1.366c-0.363,0.363 -0.854,0.566 -1.367,0.566l-0.001,0c-0.513,0 -1.004,-0.203 -1.367,-0.566c-0.362,-0.362 -0.565,-0.853 -0.565,-1.366l0,-3.213l-3.214,0c-0.512,0 -1.004,-0.204 -1.366,-0.566c-0.362,-0.362 -0.566,-0.854 -0.566,-1.366l0,-0.002Z" style="fill:#f0cb87;"/><path d="M564.341,227.702c0,-0.512 0.203,-1.003 0.566,-1.366c0.362,-0.362 0.854,-0.566 1.366,-0.566l3.213,0l0,-3.213c0,-0.512 0.204,-1.004 0.566,-1.366c0.363,-0.362 0.854,-0.566 1.366,-0.566l0.002,0c0.513,0 1.004,0.204 1.366,0.566c0.363,0.362 0.566,0.854 0.566,1.366l0,3.213l3.214,0c0.512,0 1.004,0.204 1.366,0.566c0.362,0.363 0.566,0.854 0.566,1.366l0,0.002c0,0.513 -0.204,1.004 -0.566,1.366c-0.362,0.363 -0.854,0.566 -1.366,0.566l-3.214,0l0,3.214c0,0.512 -0.203,1.004 -0.566,1.366c-0.362,0.362 -0.853,0.566 -1.366,0.566l-0.002,0c-0.512,0 -1.003,-0.204 -1.366,-0.566c-0.362,-0.362 -0.566,-0.854 -0.566,-1.366l0,-3.214l-3.213,0c-0.512,0 -1.004,-0.203 -1.366,-0.566c-0.363,-0.362 -0.566,-0.853 -0.566,-1.366l0,-0.002Z" style="fill:#f0cb87;"/><path d="M573.508,271.387c0,-0.512 0.204,-1.004 0.566,-1.366c0.363,-0.363 0.854,-0.566 1.366,-0.566l3.214,0l0,-3.214c0,-0.512 0.203,-1.003 0.566,-1.366c0.362,-0.362 0.854,-0.566 1.366,-0.566l0.002,0c0.512,0 1.004,0.204 1.366,0.566c0.362,0.363 0.566,0.854 0.566,1.366l0,3.214l3.213,0c0.513,0 1.004,0.203 1.366,0.566c0.363,0.362 0.566,0.854 0.566,1.366l0,0.002c0,0.512 -0.203,1.004 -0.566,1.366c-0.362,0.362 -0.853,0.566 -1.366,0.566l-3.213,0l0,3.213c0,0.513 -0.204,1.004 -0.566,1.366c-0.362,0.363 -0.854,0.566 -1.366,0.566l-0.002,0c-0.512,0 -1.004,-0.203 -1.366,-0.566c-0.363,-0.362 -0.566,-0.853 -0.566,-1.366l0,-3.213l-3.214,0c-0.512,0 -1.003,-0.204 -1.366,-0.566c-0.362,-0.362 -0.566,-0.854 -0.566,-1.366l0,-0.002Z" style="fill:#f0cb87;"/></g><g><g><circle cx="204.555" cy="279.884" r="78.717" style="fill:#231f20;fill-opacity:0.25;"/><circle cx="201.555" cy="276.884" r="78.717" style="fill:#75b0d2;"/><clipPath id="_clip2"><circle cx="201.555" cy="276.884" r="78.717"/></clipPath><g clip-path="url(#_clip2)"><path d="M179.631,343.463l20.652,9.409l15.809,-3.838l9.007,-8.853l-13.255,-5.864l-9.212,-8.869l-5.366,8.869l-8.404,-2.921l-5.565,6.353l-3.666,5.714Zm36.461,-23.963l15.211,2.15l2.803,3.288l-2.803,6.458l-9.21,-2.477l-6.001,-9.419Zm-33.739,-106.732l0,7.04l8.028,4.276l4.872,3.189l20.459,0l6.381,4.085l14,0l5.478,3.37l0,7.454l-15.196,0l-17.651,5.387l-4.169,0l-9.302,9.296l-4.872,2.995l4.872,17.613l-4.872,7.99l-16.462,0l-7.185,10.746l-17.472,0l-3.037,10.343l5.617,8.972l0,13.165l-5.617,-4.689l-7.094,-14.277l0,-24.26l7.094,-7.99l-7.094,-9.743l-8.361,0l-10.108,4.67l10.108,-37.672l18.492,-21.96l33.091,0Zm-4.912,106.732l10.629,5.438l12.213,-12.338l-7.211,-3.914l-11.955,-2.764l-3.676,6.678l0,6.9Zm26.307,-50.851l-2.302,8.056l-4.18,6.583l5.97,-2.91l3.243,-6.126l5.365,-9.55l-8.096,3.947Zm22.627,-55.881l-4.282,-11.601l30.666,5.369l30.512,35.646l-3.48,10.363l-11.841,-4.925l-6.088,9.29l-13.435,-22.182l0,-7.455l-6.856,-6.756l-3.16,-7.749l-12.036,0Z" style="fill:#231f20;fill-opacity:0.25;"/><g><path d="M174.441,316.5l10.629,5.438l12.213,-12.338l-7.211,-3.914l-11.955,-2.764l-3.676,6.678l0,6.9Z" style="fill:#74beae;"/><path d="M213.092,316.5l15.211,2.15l2.803,3.288l-2.803,6.458l-9.21,-2.477l-6.001,-9.419Z" style="fill:#74beae;"/><path d="M176.631,340.463l20.652,9.409l15.809,-3.838l9.007,-8.853l-13.255,-5.864l-9.212,-8.869l-5.366,8.869l-8.404,-2.921l-5.565,6.353l-3.666,5.714Z" style="fill:#74beae;"/><path d="M167.849,209.768l11.504,0l0,7.04l8.028,4.276l4.872,3.189l20.459,0l6.381,4.085l14,0l5.478,3.37l0,7.454l-15.196,0l-17.651,5.387l-4.169,0l-9.302,9.296l-4.872,2.995l4.872,17.613l-4.872,7.99l-16.462,0l-7.185,10.746l-14.892,0l-2.58,0l-3.037,10.343l5.617,8.972l0,13.165l-5.617,-4.689l-7.094,-14.277l0,-24.26l7.094,-7.99l-7.094,-9.743l-8.361,0l-10.108,4.67l10.108,-37.672l18.492,-21.96l21.587,0Z" style="fill:#74beae;"/><path d="M219.093,198.167l4.282,11.601l12.036,0l3.16,7.749l6.856,6.756l0,7.455l13.435,22.182l6.088,-9.29l11.841,4.925l3.48,-10.363l-30.512,-35.646l-30.666,-5.369Z" style="fill:#74beae;"/><path d="M200.748,265.649l-2.302,8.056l-4.18,6.583l5.97,-2.91l3.243,-6.126l5.365,-9.55l-8.096,3.947Z" style="fill:#74beae;"/></g></g></g></g><g><g id="_-グループ-1" serif:id="(グループ)"><path d="M244.78,250.439c0.046,0.621 0.473,1.149 1.071,1.324c4.614,1.116 24.738,4.145 52.67,-18.468c8.424,-6.82 9.727,-19.197 2.907,-27.621c-6.82,-8.424 -19.196,-9.726 -27.621,-2.906c-27.932,22.613 -29.159,42.926 -29.027,47.671Z" style="fill:#231f20;fill-opacity:0.25;"/><path d="M255.011,242.006c0.023,0.718 0.521,1.333 1.218,1.506c3.748,0.752 16.193,1.792 33.131,-11.92c5.383,-4.358 6.216,-12.268 1.857,-17.652c-4.358,-5.383 -12.268,-6.216 -17.652,-1.857c-16.937,13.712 -18.51,26.101 -18.554,29.923Z" style="fill:#231f20;fill-opacity:0.25;"/><path d="M242.043,247.153c0.046,0.621 0.472,1.148 1.071,1.323c4.613,1.117 24.737,4.145 52.669,-18.468c8.424,-6.82 9.727,-19.196 2.907,-27.62c-6.82,-8.424 -19.196,-9.727 -27.621,-2.907c-27.932,22.613 -29.159,42.927 -29.026,47.672Z" style="fill:#f0cb87;"/><path d="M252.273,238.72c0.023,0.718 0.521,1.333 1.218,1.505c3.748,0.752 16.193,1.793 33.131,-11.919c5.383,-4.359 6.216,-12.268 1.857,-17.652c-4.358,-5.384 -12.268,-6.216 -17.651,-1.858c-16.938,13.712 -18.511,26.101 -18.555,29.924Z" style="fill:#dc965f;"/></g><g><g><path id="_-カーブ-2" serif:id="(カーブ)" d="M335.422,217.086c0,0 -9.623,29.409 -10.798,32.997c-0.076,0.233 -0.218,0.44 -0.409,0.594c-2.199,1.781 -16.201,13.116 -21.001,17.002c-0.344,0.279 -0.808,0.359 -1.226,0.211c-0.417,-0.147 -0.728,-0.501 -0.821,-0.934c-1.507,-7.029 -6.415,-29.923 -6.415,-29.923l40.67,-19.947Z" style="fill:#231f20;fill-opacity:0.25;"/><path id="_-カーブ-3" serif:id="(カーブ)" d="M296.048,168.449c0,0 -30.768,3.291 -34.523,3.693c-0.244,0.026 -0.475,0.122 -0.666,0.277c-2.199,1.78 -16.201,13.116 -21.001,17.002c-0.344,0.278 -0.519,0.715 -0.461,1.155c0.057,0.439 0.338,0.816 0.742,0.997c6.562,2.937 27.932,12.503 27.932,12.503l27.977,-35.627Z" style="fill:#231f20;fill-opacity:0.25;"/><path id="_-カーブ-4" serif:id="(カーブ)" d="M333.684,213.799c0,0 -9.623,29.409 -10.798,32.998c-0.076,0.233 -0.218,0.439 -0.409,0.594c-2.199,1.78 -16.201,13.116 -21.001,17.002c-0.344,0.278 -0.808,0.358 -1.226,0.211c-0.417,-0.148 -0.728,-0.501 -0.821,-0.934c-1.507,-7.03 -6.415,-29.923 -6.415,-29.923l40.67,-19.948Z" style="fill:#c35b5d;"/><path id="_-カーブ-5" serif:id="(カーブ)" d="M294.31,165.163c0,0 -30.768,3.291 -34.522,3.692c-0.244,0.027 -0.476,0.123 -0.666,0.277c-2.2,1.78 -16.202,13.116 -21.002,17.002c-0.344,0.279 -0.519,0.716 -0.461,1.155c0.057,0.439 0.338,0.817 0.742,0.998c6.562,2.937 27.933,12.503 27.933,12.503l27.976,-35.627Z" style="fill:#c35b5d;"/></g><path d="M387.77,133.131c0.545,0.023 1.053,0.279 1.397,0.703c0.343,0.424 0.487,0.975 0.397,1.512c-0.902,5.354 -3.354,19.902 -5.544,32.9c-2.526,14.988 -11.545,28.094 -24.642,35.808c-23.309,13.727 -58.895,34.685 -65.848,38.78c-0.691,0.407 -1.575,0.247 -2.079,-0.376c-4.444,-5.488 -24.427,-30.171 -28.87,-35.66c-0.504,-0.623 -0.477,-1.521 0.065,-2.112c5.453,-5.949 33.359,-36.392 51.638,-56.333c10.271,-11.204 24.967,-17.298 40.153,-16.648c13.169,0.563 27.909,1.194 33.333,1.426Z" style="fill:#231f20;fill-opacity:0.25;"/><path d="M386.032,129.844c0.545,0.024 1.053,0.28 1.397,0.704c0.343,0.423 0.487,0.974 0.397,1.512c-0.902,5.353 -3.354,19.902 -5.544,32.9c-2.526,14.988 -11.545,28.094 -24.642,35.807c-23.309,13.728 -58.895,34.686 -65.848,38.781c-0.691,0.407 -1.575,0.247 -2.079,-0.376c-4.444,-5.489 -24.427,-30.172 -28.87,-35.661c-0.504,-0.623 -0.477,-1.521 0.065,-2.112c5.453,-5.949 33.359,-36.392 51.638,-56.333c10.271,-11.204 24.967,-17.297 40.153,-16.648c13.169,0.564 27.909,1.194 33.333,1.426Z" style="fill:#dcdccf;"/><clipPath id="_clip3"><path d="M386.032,129.844c0.545,0.024 1.053,0.28 1.397,0.704c0.343,0.423 0.487,0.974 0.397,1.512c-0.902,5.353 -3.354,19.902 -5.544,32.9c-2.526,14.988 -11.545,28.094 -24.642,35.807c-23.309,13.728 -58.895,34.686 -65.848,38.781c-0.691,0.407 -1.575,0.247 -2.079,-0.376c-4.444,-5.489 -24.427,-30.172 -28.87,-35.661c-0.504,-0.623 -0.477,-1.521 0.065,-2.112c5.453,-5.949 33.359,-36.392 51.638,-56.333c10.271,-11.204 24.967,-17.297 40.153,-16.648c13.169,0.564 27.909,1.194 33.333,1.426Z"/></clipPath><g clip-path="url(#_clip3)"><path d="M407.61,150.601l-36.098,-44.588l-22.419,18.15l36.098,44.588l22.419,-18.15Z" style="fill:#c35b5d;"/><path d="M360.268,157.524c7.464,9.22 6.039,22.764 -3.181,30.228c-9.219,7.464 -22.764,6.038 -30.227,-3.181c-7.464,-9.219 -6.039,-22.764 3.181,-30.228c9.219,-7.463 22.764,-6.038 30.227,3.181Z" style="fill:#231f20;fill-opacity:0.25;"/><g><path d="M356.284,155.701c6.808,8.409 5.508,20.763 -2.901,27.57c-8.409,6.808 -20.763,5.508 -27.571,-2.901c-6.807,-8.409 -5.507,-20.763 2.902,-27.57c8.409,-6.808 20.762,-5.508 27.57,2.901Z" style="fill:#75b0d2;"/><clipPath id="_clip4"><path d="M356.284,155.701c6.808,8.409 5.508,20.763 -2.901,27.57c-8.409,6.808 -20.763,5.508 -27.571,-2.901c-6.807,-8.409 -5.507,-20.763 2.902,-27.57c8.409,-6.808 20.762,-5.508 27.57,2.901Z"/></clipPath><g clip-path="url(#_clip4)"><path d="M371.279,168.973l-28.715,-31.591l-15.656,14.229l28.715,31.592l15.656,-14.23Z" style="fill:#fff;fill-opacity:0.15;"/></g><path d="M357.53,154.238c7.464,9.219 6.039,22.764 -3.181,30.228c-9.219,7.463 -22.763,6.038 -30.227,-3.181c-7.464,-9.22 -6.039,-22.764 3.181,-30.228c9.219,-7.464 22.764,-6.038 30.227,3.181Zm-32.514,22.723c0.111,0.185 0.297,0.313 0.509,0.35c0.213,0.038 0.431,-0.019 0.599,-0.155c2.208,-1.781 9.298,-7.521 11.385,-9.211c0.322,-0.26 0.372,-0.733 0.111,-1.054c-1.689,-2.087 -7.43,-9.178 -9.215,-11.383c-0.136,-0.168 -0.339,-0.27 -0.556,-0.277c-0.217,-0.008 -0.427,0.079 -0.575,0.238c-5.342,5.885 -6.262,14.626 -2.258,21.492Zm25.01,6.61c0.185,-0.111 0.312,-0.297 0.35,-0.509c0.037,-0.213 -0.019,-0.431 -0.155,-0.599c-1.781,-2.207 -7.521,-9.298 -9.211,-11.385c-0.26,-0.322 -0.733,-0.371 -1.055,-0.111c-2.086,1.69 -9.177,7.43 -11.382,9.215c-0.169,0.136 -0.27,0.34 -0.278,0.557c-0.007,0.217 0.08,0.426 0.239,0.575c5.885,5.342 14.626,6.261 21.492,2.257Zm3.053,-28.23c0.169,-0.137 0.27,-0.34 0.278,-0.557c0.007,-0.217 -0.079,-0.427 -0.238,-0.575c-5.886,-5.342 -14.626,-6.262 -21.492,-2.258c-0.185,0.111 -0.313,0.297 -0.351,0.51c-0.037,0.212 0.019,0.43 0.155,0.598c1.781,2.208 7.521,9.298 9.211,11.385c0.261,0.322 0.733,0.372 1.055,0.111c2.087,-1.689 9.177,-7.43 11.382,-9.214Zm3.557,3.221c-0.111,-0.185 -0.297,-0.313 -0.509,-0.351c-0.213,-0.037 -0.431,0.019 -0.599,0.155c-2.208,1.781 -9.298,7.522 -11.385,9.211c-0.322,0.261 -0.371,0.733 -0.111,1.055c1.69,2.087 7.43,9.177 9.215,11.382c0.136,0.169 0.339,0.27 0.557,0.278c0.217,0.007 0.426,-0.079 0.575,-0.238c5.342,-5.886 6.261,-14.626 2.257,-21.492Z" style="fill:#4e5c73;"/></g></g><path id="_-長方形-" serif:id="(長方形)" d="M316.151,194.932c0.446,-0.361 0.515,-1.015 0.153,-1.461c-0.352,-0.436 -0.785,-0.971 -1.138,-1.406c-0.361,-0.447 -1.016,-0.516 -1.462,-0.154c-5.601,4.534 -38.594,31.245 -44.195,35.779c-0.447,0.361 -0.515,1.016 -0.154,1.462c0.352,0.435 0.786,0.971 1.138,1.406c0.361,0.446 1.016,0.515 1.462,0.154c5.601,-4.535 38.594,-31.245 44.196,-35.78Z" style="fill:#231f20;fill-opacity:0.25;"/><path id="_-長方形-1" serif:id="(長方形)" d="M314.413,191.646c0.446,-0.361 0.515,-1.016 0.153,-1.462c-0.352,-0.435 -0.785,-0.971 -1.138,-1.406c-0.361,-0.446 -1.016,-0.515 -1.462,-0.154c-5.601,4.535 -38.594,31.245 -44.195,35.779c-0.447,0.362 -0.515,1.016 -0.154,1.462c0.352,0.436 0.786,0.971 1.138,1.406c0.361,0.447 1.016,0.516 1.462,0.154c5.601,-4.534 38.595,-31.245 44.196,-35.779Z" style="fill:#c35b5d;"/></g></g><g><path d="M489.737,127.299c0,0 13.9,-11.127 13.9,-23.37c0,-7.671 -6.228,-13.899 -13.9,-13.899c-7.671,0 -13.899,6.228 -13.899,13.899c0,12.243 13.899,23.37 13.899,23.37Z" style="fill:#231f20;fill-opacity:0.25;"/><path d="M486.737,124.299c0,0 13.9,-11.127 13.9,-23.37c0,-7.671 -6.228,-13.899 -13.9,-13.899c-7.671,0 -13.899,6.228 -13.899,13.899c0,12.243 13.899,23.37 13.899,23.37Z" style="fill:#c35b5d;"/><circle cx="489.737" cy="103.531" r="7.793" style="fill:#231f20;fill-opacity:0.25;"/><circle cx="486.737" cy="100.531" r="7.793" style="fill:#dcdccf;"/></g></g></g></svg>